<svg class="lds-flask" width="100%" height="100%" xmlns="http://www.w3.org/2000/svg" xmlns:xlink="http://www.w3.org/1999/xlink" viewBox="0 0 100 100" preserveAspectRatio="xMidYMid"><defs>
<clipPath id="lds-flask-cpid-3729619cda5bc" clipPathUnits="userSpaceOnUse">
<rect x="0" y="50" width="100" height="50"></rect>
</clipPath>
<pattern id="lds-flask-patid-8aff95047bb6c" patternUnits="userSpaceOnUse" x="0" y="0" width="100" height="100">
<rect x="0" y="0" width="100" height="100" fill="#d39182"></rect><circle cx="97" cy="0" r="3" fill="#b14747" transform="translate(0 103.96)">
<animateTransform attributeName="transform" type="translate" values="0 107;0 -7" keyTimes="0;1" dur="3s" begin="-1.98s" repeatCount="indefinite"></animateTransform>
</circle><circle cx="1" cy="0" r="2" fill="#b14747" transform="translate(0 64.08)">
<animateTransform attributeName="transform" type="translate" values="0 146;0 -46" keyTimes="0;1" dur="3s" begin="-0.18s" repeatCount="indefinite"></animateTransform>
</circle><circle cx="51" cy="0" r="3" fill="#b14747" transform="translate(0 1.65334)">
<animateTransform attributeName="transform" type="translate" values="0 148;0 -48" keyTimes="0;1" dur="3s" begin="-1.14s" repeatCount="indefinite"></animateTransform>
</circle><circle cx="37" cy="0" r="3" fill="#b14747" transform="translate(0 30.3733)">
<animateTransform attributeName="transform" type="translate" values="0 142;0 -42" keyTimes="0;1" dur="3s" begin="-0.72s" repeatCount="indefinite"></animateTransform>
</circle><circle cx="64" cy="0" r="2" fill="#b14747" transform="translate(0 94.7667)">
<animateTransform attributeName="transform" type="translate" values="0 135;0 -35" keyTimes="0;1" dur="3s" begin="-2.61s" repeatCount="indefinite"></animateTransform>
</circle><circle cx="5" cy="0" r="4" fill="#b14747" transform="translate(0 52.7533)">
<animateTransform attributeName="transform" type="translate" values="0 109;0 -9" keyTimes="0;1" dur="3s" begin="-0.33s" repeatCount="indefinite"></animateTransform>
</circle><circle cx="83" cy="0" r="4" fill="#b14747" transform="translate(0 54.8667)">
<animateTransform attributeName="transform" type="translate" values="0 123;0 -23" keyTimes="0;1" dur="3s" begin="-0.3s" repeatCount="indefinite"></animateTransform>
</circle><circle cx="60" cy="0" r="3" fill="#b14747" transform="translate(0 107.233)">
<animateTransform attributeName="transform" type="translate" values="0 151;0 -51" keyTimes="0;1" dur="3s" begin="-2.55s" repeatCount="indefinite"></animateTransform>
</circle><circle cx="38" cy="0" r="2" fill="#b14747" transform="translate(0 73.4667)">
<animateTransform attributeName="transform" type="translate" values="0 114;0 -14" keyTimes="0;1" dur="3s" begin="-2.85s" repeatCount="indefinite"></animateTransform>
</circle><circle cx="16" cy="0" r="3" fill="#b14747" transform="translate(0 133.4)">
<animateTransform attributeName="transform" type="translate" values="0 140;0 -40" keyTimes="0;1" dur="3s" begin="-2.01s" repeatCount="indefinite"></animateTransform>
</circle><circle cx="35" cy="0" r="3" fill="#b14747" transform="translate(0 30.3333)">
<animateTransform attributeName="transform" type="translate" values="0 109;0 -9" keyTimes="0;1" dur="3s" begin="-0.9s" repeatCount="indefinite"></animateTransform>
</circle><circle cx="7" cy="0" r="3" fill="#b14747" transform="translate(0 50.3867)">
<animateTransform attributeName="transform" type="translate" values="0 108;0 -8" keyTimes="0;1" dur="3s" begin="-0.39s" repeatCount="indefinite"></animateTransform>
</circle><circle cx="28" cy="0" r="3" fill="#b14747" transform="translate(0 15.8)">
<animateTransform attributeName="transform" type="translate" values="0 104;0 -4" keyTimes="0;1" dur="3s" begin="-1.35s" repeatCount="indefinite"></animateTransform>
</circle><circle cx="50" cy="0" r="3" fill="#b14747" transform="translate(0 -24.5)">
<animateTransform attributeName="transform" type="translate" values="0 125;0 -25" keyTimes="0;1" dur="3s" begin="-1.89s" repeatCount="indefinite"></animateTransform>
</circle><circle cx="57" cy="0" r="3" fill="#b14747" transform="translate(0 65.2)">
<animateTransform attributeName="transform" type="translate" values="0 107;0 -7" keyTimes="0;1" dur="3s" begin="-3s" repeatCount="indefinite"></animateTransform>
</circle><circle cx="51" cy="0" r="2" fill="#b14747" transform="translate(0 56.4)">
<animateTransform attributeName="transform" type="translate" values="0 110;0 -10" keyTimes="0;1" dur="3s" begin="-0.24s" repeatCount="indefinite"></animateTransform>
</circle><circle cx="78" cy="0" r="2" fill="#b14747" transform="translate(0 -14.24)">
<animateTransform attributeName="transform" type="translate" values="0 116;0 -16" keyTimes="0;1" dur="3s" begin="-1.86s" repeatCount="indefinite"></animateTransform>
</circle><circle cx="49" cy="0" r="3" fill="#b14747" transform="translate(0 82.8533)">
<animateTransform attributeName="transform" type="translate" values="0 106;0 -6" keyTimes="0;1" dur="3s" begin="-2.52s" repeatCount="indefinite"></animateTransform>
</circle><circle cx="84" cy="0" r="3" fill="#b14747" transform="translate(0 68.8067)">
<animateTransform attributeName="transform" type="translate" values="0 141;0 -41" keyTimes="0;1" dur="3s" begin="-0.09s" repeatCount="indefinite"></animateTransform>
</circle><circle cx="25" cy="0" r="3" fill="#b14747" transform="translate(0 108.267)">
<animateTransform attributeName="transform" type="translate" values="0 126;0 -26" keyTimes="0;1" dur="3s" begin="-2.25s" repeatCount="indefinite"></animateTransform>
</circle><circle cx="46" cy="0" r="3" fill="#b14747" transform="translate(0 116.133)">
<animateTransform attributeName="transform" type="translate" values="0 130;0 -30" keyTimes="0;1" dur="3s" begin="-2.16s" repeatCount="indefinite"></animateTransform>
</circle><circle cx="2" cy="0" r="4" fill="#b14747" transform="translate(0 70.64)">
<animateTransform attributeName="transform" type="translate" values="0 122;0 -22" keyTimes="0;1" dur="3s" begin="-2.97s" repeatCount="indefinite"></animateTransform>
</circle><circle cx="44" cy="0" r="4" fill="#b14747" transform="translate(0 12.9667)">
<animateTransform attributeName="transform" type="translate" values="0 105;0 -5" keyTimes="0;1" dur="3s" begin="-1.41s" repeatCount="indefinite"></animateTransform>
</circle><circle cx="42" cy="0" r="4" fill="#b14747" transform="translate(0 45.68)">
<animateTransform attributeName="transform" type="translate" values="0 131;0 -31" keyTimes="0;1" dur="3s" begin="-0.48s" repeatCount="indefinite"></animateTransform>
</circle><circle cx="18" cy="0" r="4" fill="#b14747" transform="translate(0 81.36)">
<animateTransform attributeName="transform" type="translate" values="0 146;0 -46" keyTimes="0;1" dur="3s" begin="-2.91s" repeatCount="indefinite"></animateTransform>
</circle><circle cx="83" cy="0" r="4" fill="#b14747" transform="translate(0 76.6)">
<animateTransform attributeName="transform" type="translate" values="0 107;0 -7" keyTimes="0;1" dur="3s" begin="-2.7s" repeatCount="indefinite"></animateTransform>
</circle><circle cx="1" cy="0" r="4" fill="#b14747" transform="translate(0 137.107)">
<animateTransform attributeName="transform" type="translate" values="0 144;0 -44" keyTimes="0;1" dur="3s" begin="-2.01s" repeatCount="indefinite"></animateTransform>
</circle><circle cx="73" cy="0" r="4" fill="#b14747" transform="translate(0 98.6667)">
<animateTransform attributeName="transform" type="translate" values="0 150;0 -50" keyTimes="0;1" dur="3s" begin="-2.67s" repeatCount="indefinite"></animateTransform>
</circle><circle cx="62" cy="0" r="3" fill="#b14747" transform="translate(0 21.7333)">
<animateTransform attributeName="transform" type="translate" values="0 130;0 -30" keyTimes="0;1" dur="3s" begin="-0.93s" repeatCount="indefinite"></animateTransform>
</circle><circle cx="84" cy="0" r="3" fill="#b14747" transform="translate(0 68.6667)">
<animateTransform attributeName="transform" type="translate" values="0 120;0 -20" keyTimes="0;1" dur="3s" begin="0s" repeatCount="indefinite"></animateTransform>
</circle><circle cx="90" cy="0" r="4" fill="#b14747" transform="translate(0 -23.5067)">
<animateTransform attributeName="transform" type="translate" values="0 124;0 -24" keyTimes="0;1" dur="3s" begin="-1.89s" repeatCount="indefinite"></animateTransform>
</circle><circle cx="3" cy="0" r="4" fill="#b14747" transform="translate(0 -19.8667)">
<animateTransform attributeName="transform" type="translate" values="0 130;0 -30" keyTimes="0;1" dur="3s" begin="-1.71s" repeatCount="indefinite"></animateTransform>
</circle><circle cx="87" cy="0" r="4" fill="#b14747" transform="translate(0 107.747)">
<animateTransform attributeName="transform" type="translate" values="0 111;0 -11" keyTimes="0;1" dur="3s" begin="-1.98s" repeatCount="indefinite"></animateTransform>
</circle><circle cx="44" cy="0" r="2" fill="#b14747" transform="translate(0 35.6933)">
<animateTransform attributeName="transform" type="translate" values="0 124;0 -24" keyTimes="0;1" dur="3s" begin="-0.69s" repeatCount="indefinite"></animateTransform>
</circle><circle cx="80" cy="0" r="3" fill="#b14747" transform="translate(0 20.9667)">
<animateTransform attributeName="transform" type="translate" values="0 117;0 -17" keyTimes="0;1" dur="3s" begin="-1.05s" repeatCount="indefinite"></animateTransform>
</circle><circle cx="0" cy="0" r="2" fill="#b14747" transform="translate(0 29)">
<animateTransform attributeName="transform" type="translate" values="0 113;0 -13" keyTimes="0;1" dur="3s" begin="-0.9s" repeatCount="indefinite"></animateTransform>
</circle><circle cx="47" cy="0" r="4" fill="#b14747" transform="translate(0 28.5333)">
<animateTransform attributeName="transform" type="translate" values="0 142;0 -42" keyTimes="0;1" dur="3s" begin="-0.75s" repeatCount="indefinite"></animateTransform>
</circle><circle cx="21" cy="0" r="2" fill="#b14747" transform="translate(0 -15.1733)">
<animateTransform attributeName="transform" type="translate" values="0 144;0 -44" keyTimes="0;1" dur="3s" begin="-1.44s" repeatCount="indefinite"></animateTransform>
</circle><circle cx="1" cy="0" r="4" fill="#b14747" transform="translate(0 35.56)">
<animateTransform attributeName="transform" type="translate" values="0 107;0 -7" keyTimes="0;1" dur="3s" begin="-0.78s" repeatCount="indefinite"></animateTransform>
</circle><circle cx="90" cy="0" r="3" fill="#b14747" transform="translate(0 42.5933)">
<animateTransform attributeName="transform" type="translate" values="0 151;0 -51" keyTimes="0;1" dur="3s" begin="-0.51s" repeatCount="indefinite"></animateTransform>
</circle><circle cx="6" cy="0" r="3" fill="#b14747" transform="translate(0 64.9333)">
<animateTransform attributeName="transform" type="translate" values="0 106;0 -6" keyTimes="0;1" dur="3s" begin="-3s" repeatCount="indefinite"></animateTransform>
</circle><circle cx="11" cy="0" r="3" fill="#b14747" transform="translate(0 49.1067)">
<animateTransform attributeName="transform" type="translate" values="0 117;0 -17" keyTimes="0;1" dur="3s" begin="-0.42s" repeatCount="indefinite"></animateTransform>
</circle><circle cx="58" cy="0" r="4" fill="#b14747" transform="translate(0 -29.3333)">
<animateTransform attributeName="transform" type="translate" values="0 150;0 -50" keyTimes="0;1" dur="3s" begin="-1.59s" repeatCount="indefinite"></animateTransform>
</circle><circle cx="74" cy="0" r="2" fill="#b14747" transform="translate(0 79.44)">
<animateTransform attributeName="transform" type="translate" values="0 119;0 -19" keyTimes="0;1" dur="3s" begin="-2.76s" repeatCount="indefinite"></animateTransform>
</circle><circle cx="40" cy="0" r="2" fill="#b14747" transform="translate(0 9.46667)">
<animateTransform attributeName="transform" type="translate" values="0 114;0 -14" keyTimes="0;1" dur="3s" begin="-1.35s" repeatCount="indefinite"></animateTransform>
</circle><circle cx="27" cy="0" r="3" fill="#b14747" transform="translate(0 27.2267)">
<animateTransform attributeName="transform" type="translate" values="0 111;0 -11" keyTimes="0;1" dur="3s" begin="-0.96s" repeatCount="indefinite"></animateTransform>
</circle><circle cx="10" cy="0" r="2" fill="#b14747" transform="translate(0 25.4267)">
<animateTransform attributeName="transform" type="translate" values="0 147;0 -47" keyTimes="0;1" dur="3s" begin="-0.78s" repeatCount="indefinite"></animateTransform>
</circle><circle cx="16" cy="0" r="2" fill="#b14747" transform="translate(0 41.0667)">
<animateTransform attributeName="transform" type="translate" values="0 117;0 -17" keyTimes="0;1" dur="3s" begin="-0.6s" repeatCount="indefinite"></animateTransform>
</circle><circle cx="2" cy="0" r="2" fill="#b14747" transform="translate(0 46.8)">
<animateTransform attributeName="transform" type="translate" values="0 110;0 -10" keyTimes="0;1" dur="3s" begin="-0.48s" repeatCount="indefinite"></animateTransform>
</circle><circle cx="54" cy="0" r="4" fill="#b14747" transform="translate(0 23.36)">
<animateTransform attributeName="transform" type="translate" values="0 104;0 -4" keyTimes="0;1" dur="3s" begin="-1.14s" repeatCount="indefinite"></animateTransform>
</circle>      </pattern></defs>

      <path fill="url(#lds-flask-patid-8aff95047bb6c)" clip-path="url(#lds-flask-cpid-3729619cda5bc)" d="M59,37.3V18.9c3-0.8,5.1-3.6,5.1-6.8C64.1,8.2,61,5,57.1,5H42.9c-3.9,0-7.1,3.2-7.1,7.1c0,3.2,2.2,6,5.1,6.8v18.4c-11.9,3.8-20.6,15-20.6,28.2C20.4,81.8,33.7,95,50,95s29.6-13.2,29.6-29.6C79.6,52.2,70.9,41.1,59,37.3z"></path>

      <path fill="none" stroke="#cae6e9" stroke-width="5" d="M59,37.3V18.9c3-0.8,5.1-3.6,5.1-6.8C64.1,8.2,61,5,57.1,5H42.9c-3.9,0-7.1,3.2-7.1,7.1c0,3.2,2.2,6,5.1,6.8v18.4c-11.9,3.8-20.6,15-20.6,28.2C20.4,81.8,33.7,95,50,95s29.6-13.2,29.6-29.6C79.6,52.2,70.9,41.1,59,37.3z"></path>
</svg>
